<?xml version="1.0" standalone="no"?>
<!DOCTYPE svg PUBLIC "-//W3C//DTD SVG 20010904//EN"
 "http://www.w3.org/TR/2001/REC-SVG-20010904/DTD/svg10.dtd">
<svg version="1.0" xmlns="http://www.w3.org/2000/svg"
 width="443.000000pt" height="443.000000pt" viewBox="0 0 443.000000 443.000000"
 preserveAspectRatio="xMidYMid meet">
<metadata>
Created by potrace 1.14, written by Peter Selinger 2001-2017
</metadata>
<g transform="translate(0.000000,443.000000) scale(0.100000,-0.100000)"
fill="#000000" stroke="none">
<path d="M2157 4424 c-1 -1 -47 -4 -102 -8 -55 -3 -109 -8 -120 -10 -11 -2
-42 -7 -70 -10 -126 -17 -339 -78 -494 -142 -321 -132 -665 -390 -866 -649
-16 -21 -39 -50 -51 -64 -78 -97 -263 -424 -286 -506 -3 -11 -17 -50 -31 -87
-44 -118 -91 -311 -103 -423 -3 -27 -8 -57 -11 -65 -3 -8 -7 -98 -8 -200 -3
-199 5 -308 35 -460 6 -30 13 -68 15 -85 3 -16 10 -41 15 -55 5 -14 16 -52 25
-85 47 -171 157 -405 271 -577 114 -171 283 -363 414 -468 24 -19 48 -40 54
-45 10 -10 110 -82 183 -133 18 -12 35 -22 39 -22 4 0 15 -6 23 -14 20 -17
211 -118 211 -111 0 3 10 -1 23 -9 67 -44 347 -131 517 -160 237 -42 535 -41
760 0 241 44 431 108 640 217 93 48 245 142 304 188 119 92 266 230 363 340
25 29 109 141 161 215 41 59 133 229 181 335 70 157 146 430 168 609 10 83 10
444 0 535 -10 99 -50 284 -85 395 -186 596 -612 1083 -1177 1346 -284 133
-586 202 -905 208 -50 1 -92 1 -93 0z"/>
</g>
</svg>
